<?xml version="1.0" encoding="utf-8"?>
<!-- Generator: Adobe Illustrator 17.0.0, SVG Export Plug-In . SVG Version: 6.00 Build 0)  -->
<!DOCTYPE svg PUBLIC "-//W3C//DTD SVG 1.1//EN" "http://www.w3.org/Graphics/SVG/1.1/DTD/svg11.dtd">
<svg version="1.1" id="Layer_1" xmlns="http://www.w3.org/2000/svg" xmlns:xlink="http://www.w3.org/1999/xlink" x="0px" y="0px"
	 width="60px" height="73px" viewBox="0 0 60 73" enable-background="new 0 0 60 73" xml:space="preserve">
<title>icon_comodidade</title>
<desc>Created with Sketch.</desc>
<g id="Page-1">
	<g id="Desktop-HD" transform="translate(-281.000000, -1116.000000)">
		<g id="icon_comodidade" transform="translate(281.000000, 1116.066049)">
			<g id="tea" transform="translate(0.610840, 0.733145)">
				<g id="Group-3" transform="translate(0.000000, 20.943443)">
					<g id="Clip-2">
					</g>
					<defs>
						<filter id="Adobe_OpacityMaskFilter" filterUnits="userSpaceOnUse" x="-0.19" y="2.209" width="59.158" height="46.058">
							<feColorMatrix  type="matrix" values="1 0 0 0 0  0 1 0 0 0  0 0 1 0 0  0 0 0 1 0"/>
						</filter>
					</defs>
					<mask maskUnits="userSpaceOnUse" x="-0.19" y="2.209" width="59.158" height="46.058" id="mask-2">
						<g filter="url(#Adobe_OpacityMaskFilter)">
							<polygon id="path-1" fill="#FFFFFF" points="-0.182,2.209 58.969,2.209 58.969,48.268 -0.182,48.268 							"/>
						</g>
					</mask>
					<path id="Fill-1" mask="url(#mask-2)" fill="#C4C5C5" d="M45.222,33.637h-1.973V29.71h1.973c3.25,0,5.893-2.644,5.893-5.893
						s-2.644-5.893-5.893-5.893h-1.973v-3.927h1.973c5.415,0,9.82,4.405,9.82,9.82S50.637,33.637,45.222,33.637z M43.249,21.85
						h1.973c1.084,0,1.967,0.882,1.967,1.967s-0.882,1.966-1.967,1.966h-1.973V21.85z M39.322,41.111
						c0,1.781-1.449,3.229-3.229,3.229H6.966c-1.781,0-3.229-1.449-3.229-3.229V6.136h8.438v5.004l-4.504,3.93v12.026h12.936V15.07
						l-4.504-3.93V6.136h23.221v34.975H39.322z M14.138,14.638l2.541,2.217v6.314h-5.082v-6.314L14.138,14.638z M45.222,10.069
						h-1.973v-7.86H-0.19v38.902c0,3.946,3.21,7.156,7.156,7.156h29.126c3.946,0,7.156-3.21,7.156-7.156v-3.548h1.973
						c7.58,0,13.747-6.167,13.747-13.747S52.802,10.069,45.222,10.069z"/>
				</g>
				<path id="Fill-4" fill="#C4C5C5" d="M10.804,19.221h3.927c0-2.684-0.887-4.126-1.6-5.286c-0.591-0.961-1.018-1.655-1.018-3.229
					c0-1.573,0.427-2.268,1.018-3.229c0.713-1.159,1.6-2.602,1.6-5.286h-3.927c0,1.573-0.427,2.268-1.018,3.229
					c-0.713,1.159-1.6,2.602-1.6,5.286s0.887,4.127,1.6,5.286C10.377,16.953,10.804,17.647,10.804,19.221"/>
				<path id="Fill-5" fill="#C4C5C5" d="M20.875,19.221h3.927c0-2.684-0.887-4.126-1.6-5.286c-0.591-0.961-1.018-1.655-1.018-3.229
					c0-1.573,0.427-2.268,1.018-3.229c0.713-1.159,1.6-2.602,1.6-5.286h-3.927c0,1.573-0.427,2.268-1.018,3.229
					c-0.713,1.159-1.6,2.602-1.6,5.286s0.887,4.127,1.6,5.286C20.448,16.953,20.875,17.647,20.875,19.221"/>
				<path id="Fill-6" fill="#C4C5C5" d="M30.946,19.221h3.927c0-2.684-0.887-4.126-1.6-5.286c-0.591-0.961-1.018-1.655-1.018-3.229
					c0-1.573,0.427-2.268,1.018-3.229c0.713-1.159,1.6-2.602,1.6-5.286h-3.927c0,1.573-0.427,2.268-1.018,3.229
					c-0.713,1.159-1.6,2.602-1.6,5.286s0.887,4.127,1.6,5.286C30.519,16.953,30.946,17.647,30.946,19.221"/>
			</g>
		</g>
	</g>
</g>
</svg>
