<?xml version="1.0" encoding="UTF-8"?>
<svg width="76px" height="76px" viewBox="0 0 76 76" version="1.1" xmlns="http://www.w3.org/2000/svg" xmlns:xlink="http://www.w3.org/1999/xlink">
    <!-- Generator: Sketch 51.2 (57519) - http://www.bohemiancoding.com/sketch -->
    <title>icon_phonecall</title>
    <desc>Created with Sketch.</desc>
    <defs>
        <polygon id="path-1" points="0 0.0336857617 75.0160288 0.0336857617 75.0160288 75.1560167 0 75.1560167"></polygon>
    </defs>
    <g id="Page-1" stroke="none" stroke-width="1" fill="none" fill-rule="evenodd">
        <g id="Desktop-HD" transform="translate(-594.000000, -2347.000000)">
            <g id="icon_phonecall" transform="translate(594.000000, 2346.000000)">
                <g id="phone-call" transform="translate(0.414072, 0.916164)">
                    <g id="Group-5">
                        <mask id="mask-2" fill="white">
                            <use xlink:href="#path-1"></use>
                        </mask>
                        <g id="Clip-2"></g>
                        <path d="M55.7755483,32.2183887 C55.4526263,32.2948905 55.2221599,32.5413107 54.8984691,32.6178125 C54.4990453,32.7717771 54.1763155,32.8640405 53.7761229,32.9407345 C53.3000052,33.0180051 52.9763143,32.6950831 52.8231186,32.2948905 C52.745848,31.8954668 52.6693462,31.5719681 52.745848,31.1723521 C52.8231186,30.4494297 52.992076,29.727084 53.1460406,29.0039694 C53.5454644,26.8363555 53.945657,24.6062716 54.3450807,22.4378888 C54.4225436,21.8845005 54.591501,21.2388487 54.4990453,20.6696987 C54.4990453,19.9473529 54.0223509,19.6244309 53.3000052,19.6244309 L47.533541,19.6244309 C47.287313,19.6244309 47.0566544,19.6244309 46.8104264,19.7011249 C46.4110026,19.7776267 46.1647746,20.0238547 46.087504,20.3467767 C46.087504,20.5930047 46.2412764,20.900165 46.641469,21.0698913 C46.964391,21.1463931 47.287313,21.223087 47.6867367,21.223087 C48.4863531,21.3003577 48.7325811,21.6232797 48.7325811,22.422896 L48.7325811,22.8223198 C48.4098513,24.7444745 48.0869293,26.6666292 47.6867367,28.588784 C47.533541,29.7113223 47.3638147,30.8338607 47.2098501,31.8647123 C46.964391,33.463945 48.5786165,34.9859071 49.7786177,35.1398717 C50.5007713,35.2165657 51.3005798,35.2938363 52.0235022,35.2938363 C53.6229272,35.2938363 54.9909247,34.5707217 56.1134631,33.4481833 C56.2672355,33.294411 56.5136557,32.971489 56.5136557,32.7252609 C56.5751646,32.3106522 56.2522426,31.9871535 55.7755483,32.2183887 Z" id="Fill-1" fill="#949494" mask="url(#mask-2)"></path>
                        <path d="M68.108093,6.99914202 C58.8967431,-2.28813299 43.9196979,-2.28813299 34.7241097,6.99914202 C25.8356817,15.8875699 25.5127598,30.0649988 33.7705287,39.3528505 L33.9244933,39.5068151 C33.0476063,41.4289698 31.4481813,43.8278189 29.0343394,45.0270512 C28.2347231,45.4272438 28.3884954,46.626284 29.2805675,46.7960102 C32.0023386,47.195434 35.846648,46.7960102 39.3680355,44.0742391 L39.4447295,44.1507409 C48.4863531,49.4405107 60.3422035,48.2412784 68.108093,40.460396 C77.3186741,31.1875372 77.3186741,16.2104919 68.108093,6.99914202 Z M51.4543522,41.8291624 C41.4433859,41.8291624 33.3553433,33.7403509 33.3553433,23.7301535 C33.3553433,13.7191872 41.4433859,5.64613731 51.4543522,5.64613731 C61.4647418,5.64613731 69.5535534,13.7349488 69.5535534,23.7451463 C69.5535534,33.7561125 61.4647418,41.8291624 51.4543522,41.8291624 Z" id="Fill-3" fill="#949494" mask="url(#mask-2)"></path>
                        <path d="M44.3191216,55.2842455 C42.4744297,53.3620908 40.0753884,53.3620908 38.1532337,55.2842455 L33.8322299,59.6052494 C33.4320372,60.0046731 33.1091152,60.0813671 32.6324209,59.8509007 C31.7561105,59.2975124 30.7102661,58.8973198 29.8339558,58.3289386 C25.6667243,55.6836693 22.1453369,52.3160542 19.024142,48.4869297 C17.501411,46.564775 16.1484063,44.5659263 15.1798326,42.2443478 C15.025868,41.7676535 15.025868,41.5212332 15.4252917,41.1218095 C16.9480227,39.7530431 18.3010274,38.3227677 19.7462956,36.8773074 C21.7459131,34.8786509 21.7459131,32.5563035 19.7462956,30.5574548 L16.3021787,27.1125691 C15.1023697,25.913529 13.9798314,24.71372 12.7807912,23.5911817 C10.9353305,21.7462976 8.53628916,21.7462976 6.61413443,23.5911817 L2.29313059,27.9123777 C0.924940857,29.2811441 0.217780131,30.8803768 0.0480538683,32.7100759 C-0.197405291,35.6782673 0.524748242,38.5532341 1.57078485,41.3522758 C3.73839874,47.195434 7.01432705,52.2395524 10.9353305,56.9601722 C16.3021787,63.3722882 22.6987252,68.4164066 30.1568778,72.0144881 C33.5243007,73.6137208 36.9691864,74.8902238 40.6445384,75.1356829 C43.2890389,75.2896475 45.5341156,74.5822946 47.3638147,72.5678764 C48.5636237,71.1224161 50.0090841,69.923376 51.2853948,68.5696024 C53.2075496,66.5709459 53.2075496,64.1719046 51.2853948,62.2497498 L44.3191216,55.2842455 Z" id="Fill-4" fill="#949494" mask="url(#mask-2)"></path>
                    </g>
                    <path d="M52.0077406,18.2091484 C53.6844361,18.2091484 55.0524337,16.8411509 55.0524337,15.1644553 C55.0524337,13.4885286 53.6844361,12.0432605 52.0077406,12.0432605 C50.3320061,12.0432605 48.9630475,13.4120269 48.8865457,15.0879536 C48.9630475,16.8561437 50.3320061,18.2091484 52.0077406,18.2091484 Z" id="Fill-6" fill="#949494"></path>
                </g>
            </g>
        </g>
    </g>
</svg>