<?xml version="1.0" encoding="utf-8"?>
<!-- Generator: Adobe Illustrator 17.0.0, SVG Export Plug-In . SVG Version: 6.00 Build 0)  -->
<!DOCTYPE svg PUBLIC "-//W3C//DTD SVG 1.1//EN" "http://www.w3.org/Graphics/SVG/1.1/DTD/svg11.dtd">
<svg version="1.1" id="Layer_1" xmlns="http://www.w3.org/2000/svg" xmlns:xlink="http://www.w3.org/1999/xlink" x="0px" y="0px"
	 width="60px" height="73px" viewBox="0 0 60 73" enable-background="new 0 0 60 73" xml:space="preserve">
<title>icon_qualidade</title>
<desc>Created with Sketch.</desc>
<g id="Page-1">
	<g id="Desktop-HD" transform="translate(-1088.000000, -1121.000000)">
		<g id="icon_qualidade" transform="translate(1088.000000, 1121.066049)">
			<g id="prize">
				<path id="Fill-1" fill="#C4C5C5" d="M30.001,39.577c-5.939,0-10.771-4.832-10.771-10.771s4.832-10.771,10.771-10.771
					s10.771,4.832,10.771,10.771C40.771,34.745,35.939,39.577,30.001,39.577z M30.001,14.144c-8.084,0-14.662,6.577-14.662,14.662
					c0,8.084,6.577,14.662,14.662,14.662s14.661-6.578,14.661-14.662C44.661,20.721,38.085,14.144,30.001,14.144z"/>
				<path id="Fill-2" fill="#C4C5C5" d="M50.343,33.448L46.7,36.842l-0.392,4.968l-4.761,1.482l-2.497,4.313l-4.926-0.726
					l-4.124,2.794l-4.124-2.794l-4.926,0.726l-2.497-4.313l-4.761-1.482l-0.392-4.968l-3.644-3.394l1.81-4.642l-1.81-4.642
					l3.644-3.394l0.392-4.968l4.761-1.482l2.497-4.313l4.926,0.726l4.124-2.794l4.124,2.794l4.926-0.726l2.497,4.313l4.761,1.482
					L46.7,20.77l3.644,3.394l-1.81,4.642L50.343,33.448z M30.001,59.477l-8.127,3.939V51.401l3.074-0.453l5.054,3.423l5.054-3.423
					l3.073,0.453v12.016L30.001,59.477z M54.928,23.117l-4.469-4.162l-0.48-6.084l-5.826-1.813l-3.058-5.283l-6.041,0.89
					l-5.054-3.424l-5.054,3.423l-6.041-0.89l-3.058,5.283l-5.827,1.813l-0.48,6.084l-4.469,4.163l2.219,5.689l-2.219,5.689
					l4.469,4.162l0.48,6.084l5.826,1.813l2.135,3.688v19.384L30,63.8l12.018,5.826V50.243l2.135-3.688l5.826-1.813l0.48-6.084
					l4.469-4.162l-2.219-5.689L54.928,23.117z"/>
			</g>
		</g>
	</g>
</g>
</svg>
