<?xml version="1.0" encoding="utf-8"?>
<!-- Generator: Adobe Illustrator 17.0.0, SVG Export Plug-In . SVG Version: 6.00 Build 0)  -->
<!DOCTYPE svg PUBLIC "-//W3C//DTD SVG 1.1//EN" "http://www.w3.org/Graphics/SVG/1.1/DTD/svg11.dtd">
<svg version="1.1" id="Layer_1" xmlns="http://www.w3.org/2000/svg" xmlns:xlink="http://www.w3.org/1999/xlink" x="0px" y="0px"
	 width="60px" height="73px" viewBox="0 0 60 73" enable-background="new 0 0 60 73" xml:space="preserve">
<title>icon_comodidade</title>
<desc>Created with Sketch.</desc>
<path fill="#C4C5C5" d="M42.861,21.461H17.746v4.051h25.216v-4.051H42.861z M42.861,31.588H17.746v4.051h25.216v-4.051H42.861z
	 M42.861,41.715H17.746v4.051h25.216v-4.051H42.861z M26.253,65.716h7.393c1.013,0,1.823-0.81,1.823-1.823s-0.81-1.823-1.823-1.823
	h-7.393c-1.013,0-1.823,0.81-1.823,1.823S25.24,65.716,26.253,65.716z M46.304-0.008H13.696c-3.139,0-5.671,2.532-5.671,5.671
	v61.673c0,3.139,2.532,5.671,5.671,5.671h32.609c3.139,0,5.671-2.532,5.671-5.671V5.663C51.976,2.524,49.444-0.008,46.304-0.008z
	 M48.33,67.235c0,1.114-0.911,2.025-2.025,2.025H13.696c-1.114,0-2.025-0.911-2.025-2.025v-9.013h36.66L48.33,67.235L48.33,67.235z
	 M48.33,54.577H11.67V13.056h36.66L48.33,54.577L48.33,54.577z M48.33,9.41H11.67V5.663c0-1.114,0.911-2.025,2.025-2.025h32.609
	c1.114,0,2.025,0.911,2.025,2.025L48.33,9.41L48.33,9.41z"/>
</svg>
