<?xml version="1.0" encoding="UTF-8"?>
<svg width="76px" height="34px" viewBox="0 0 76 34" version="1.1" xmlns="http://www.w3.org/2000/svg" xmlns:xlink="http://www.w3.org/1999/xlink">
    <!-- Generator: Sketch 51.2 (57519) - http://www.bohemiancoding.com/sketch -->
    <title>img_logoAutoE</title>
    <desc>Created with Sketch.</desc>
    <defs></defs>
    <g id="Page-1" stroke="none" stroke-width="1" fill="none" fill-rule="evenodd">
        <g id="img_logoAutoE" transform="translate(0.000000, 0.666667)" fill="#E6E6E6">
            <g id="Group">
                <path d="M44.1695238,26.363093 L43.7009524,26.363093 L43.7009524,28.0719273 L44.1851429,28.0719273 C44.6849524,28.0719273 44.8567619,27.8941045 44.8567619,27.2985959 L44.8567619,27.0821159 C44.8567619,26.5179102 44.6615238,26.363093 44.1695238,26.363093 Z" id="Shape" fill-rule="nonzero"></path>
                <path d="M57.4142857,26.363093 L56.9379048,26.363093 L56.9379048,27.770213 L57.4299048,27.770213 C57.9297143,27.770213 58.1329524,27.5925787 58.1329524,27.1596187 L58.1329524,26.9431388 C58.1327619,26.479253 57.9062857,26.363093 57.4142857,26.363093 Z" id="Shape" fill-rule="nonzero"></path>
                <polygon id="Shape" fill-rule="nonzero" points="12.5426667 9.25042446 11.7725714 12.8719388 10.2321905 17.9552588 14.6927619 17.9552588 13.2165714 12.8719388"></polygon>
                <path d="M50.8386667,26.2703159 C50.2529524,26.2703159 50.0108571,26.4636016 50.0108571,27.6235045 L50.0108571,28.0796588 C50.0108571,29.3398816 50.2841905,29.5795559 50.8542857,29.5795559 C51.4321905,29.5795559 51.6899048,29.3010359 51.6899048,28.0564645 L51.6899048,27.5925788 C51.6899048,26.4405959 51.432381,26.2703159 50.8386667,26.2703159 Z" id="Shape" fill-rule="nonzero"></path>
                <path d="M0,0.0685044643 L0,32.8288302 L70.747619,32.8288302 L75.9104762,24.888653 L75.9104762,0.0685044643 L0,0.0685044643 Z M39.2411429,3.56386446 L54.8691429,3.56386446 L54.8691429,7.88441304 L49.7988571,7.88441304 L49.7988571,24.2454359 L44.3114286,24.2454359 L44.3114286,7.88441304 L39.2411429,7.88441304 L39.2411429,3.56386446 Z M16.4897143,24.2454359 L15.6874286,21.3863159 L9.17314286,21.3863159 L8.30666667,24.2454359 L3.62171429,24.2454359 L10.5531429,3.56386446 L15.4308571,3.56386446 L22.1697143,24.2454359 L16.4897143,24.2454359 Z M33.9078095,30.4068187 L30.5575238,30.4068187 L30.5575238,25.3736587 L33.7594286,25.3736587 L33.7594286,26.425133 L31.8929524,26.425133 L31.8929524,27.3915616 L33.4392381,27.3915616 L33.4392381,28.373453 L31.8929524,28.373453 L31.8929524,29.3940016 L33.9078095,29.3940016 L33.9078095,30.4068187 Z M33.112,21.9580645 L31.636,24.1818873 C31.1224762,24.340853 30.063619,24.6900873 28.3306667,24.6900873 C24.8007619,24.6900873 21.5918095,22.6569102 21.5918095,16.4619616 L21.5918095,3.56367589 L27.0792381,3.56367589 L27.0792381,17.5419102 C27.0792381,19.6705045 27.8173333,20.655413 29.5502857,20.655413 C30.9300952,20.655413 31.7965714,20.4012187 32.5024762,20.1153445 L32.5024762,3.56386446 L37.9899048,3.56367589 L37.9899048,24.2454359 L34.1712381,24.2454359 L33.112,21.9580645 Z M37.7969524,30.5150588 C37.0394286,30.5150588 36.5864762,30.3449673 36.2038095,30.1669559 L36.4146667,29.2391845 C36.852,29.4092759 37.2190476,29.5408988 37.6721905,29.5408988 C38.2420952,29.5408988 38.4531429,29.4249273 38.4531429,29.0538188 C38.4531429,28.6979845 38.2891429,28.6285902 37.5628571,28.5048873 C36.7270476,28.3657216 36.2272381,28.0100759 36.2272381,26.912213 C36.2272381,25.8916645 36.8285714,25.2808816 38.0392381,25.2808816 C38.7028571,25.2808816 39.1247619,25.3813902 39.4527619,25.5205559 L39.3278095,26.5024473 C38.9217143,26.3864759 38.6485714,26.316893 38.1954286,26.316893 C37.6255238,26.316893 37.4457143,26.4328645 37.4457143,26.7575845 C37.4457143,27.0979559 37.5472381,27.1982759 38.2344762,27.3065159 C39.1561905,27.453413 39.7026667,27.778133 39.7026667,28.8373387 C39.7022857,29.9274702 39.1792381,30.5150588 37.7969524,30.5150588 Z M44.2398095,28.9842359 L43.7009524,28.9842359 L43.7009524,30.4068188 L42.3655238,30.4068188 L42.3655238,25.3736588 L44.2398095,25.3736588 C45.5129524,25.3736588 46.2624762,25.9535159 46.2624762,27.1598073 C46.2624762,28.3346073 45.528381,28.9842359 44.2398095,28.9842359 Z M50.8386667,30.5150588 C49.2299048,30.5150588 48.6049524,29.3398816 48.6049524,27.8786416 C48.6049524,26.4019388 49.2531429,25.2808816 50.8542857,25.2808816 C52.4708571,25.2808816 53.095619,26.3864759 53.095619,27.8631787 C53.095619,29.3087673 52.447619,30.5150588 50.8386667,30.5150588 Z M58.3358095,30.4068188 L57.4455238,28.5976645 L56.9379048,28.5976645 L56.9379048,30.4068188 L55.6024762,30.4068188 L55.6024762,25.3736588 L57.4845714,25.3736588 C58.7655238,25.3736588 59.5384762,25.829813 59.5384762,27.0438359 C59.5384762,27.7783216 59.2182857,28.2884073 58.3125714,28.4664188 L58.9371429,28.9148416 L59.7104762,30.4070073 L58.3358095,30.4070073 L58.3358095,30.4068188 Z M65.5752381,26.425133 L64.3411429,26.425133 L64.3411429,30.4068188 L63.0057143,30.4068188 L63.0057143,26.425133 L61.7718095,26.425133 L61.7718095,25.3736588 L65.5750476,25.3736588 L65.5750476,26.425133 L65.5752381,26.425133 Z M71.4241905,30.4068187 L68.0739048,30.4068187 L68.0739048,25.3736587 L71.2758095,25.3736587 L71.2758095,26.425133 L69.4091429,26.425133 L69.4091429,27.3915616 L70.9554286,27.3915616 L70.9554286,28.373453 L69.4091429,28.373453 L69.4091429,29.3940016 L71.424,29.3940016 L71.424,30.4068187 L71.4241905,30.4068187 Z M63.7575238,24.6900873 C57.1470476,24.6900873 54.5798095,19.8613387 54.5798095,13.8568473 C54.5798095,7.78899589 57.2432381,3.18238446 63.8217143,3.18238446 C70.464381,3.18238446 73.031619,7.72544732 73.031619,13.7932987 C73.0314286,19.7342416 70.368,24.6900873 63.7575238,24.6900873 Z" id="Shape" fill-rule="nonzero"></path>
                <path d="M63.7575238,7.24892732 C61.3506667,7.24892732 60.356,8.04319018 60.356,12.8083902 L60.356,14.6827902 C60.356,19.8611502 61.4790476,20.8460588 63.8217143,20.8460588 C66.196381,20.8460588 67.2552381,19.702373 67.2552381,14.5875616 L67.2552381,12.6814816 C67.2552381,7.94796161 66.1961905,7.24892732 63.7575238,7.24892732 Z" id="Shape" fill-rule="nonzero"></path>
            </g>
        </g>
    </g>
</svg>