<?xml version="1.0" encoding="UTF-8"?>
<svg width="160px" height="20px" viewBox="0 0 160 20" version="1.1" xmlns="http://www.w3.org/2000/svg" xmlns:xlink="http://www.w3.org/1999/xlink">
    <!-- Generator: Sketch 51.2 (57519) - http://www.bohemiancoding.com/sketch -->
    <title>img_logoAssine</title>
    <desc>Created with Sketch.</desc>
    <defs>
        <polygon id="path-1" points="0 20 159.662494 20 159.662494 0 0 0"></polygon>
    </defs>
    <g id="Page-1" stroke="none" stroke-width="1" fill="none" fill-rule="evenodd">
        <g id="Desktop-HD" transform="translate(-33.000000, -18.000000)">
            <g id="img_logoAssine" transform="translate(33.000000, 18.000000)">
                <g id="Group-2">
                    <path d="M12.679797,1 L0,20 L3.29502538,20 L7.01360406,14.4028483 L13.3039594,14.4028483 L13.3039594,20 L16,20 L16,1 L12.679797,1 Z M13.2544162,4.59488802 L13.3039594,4.59488802 L13.3039594,11.86108 L8.71147208,11.86108 L13.2544162,4.59488802 Z" id="Fill-1" fill="#E6E6E6"></path>
                    <path d="M26.4982799,5.53158333 C26.4982799,3.81491667 25.4222494,2.78991667 23.8959389,2.78991667 C22.5943613,2.78991667 21.4181781,3.9945 21.4181781,5.37783333 C21.4181781,6.70991667 22.2943104,7.47866667 24.0962443,8.06783333 C28.0999084,9.3745 29.5761425,10.912 29.5761425,14.1911667 C29.5761425,17.6240833 27.1736997,19.9303333 23.8959389,19.9303333 C20.5925293,19.9303333 18.2401628,17.5215833 18.1900865,13.9603333 L20.8929873,13.9603333 C20.9178219,16.0099167 22.0940051,17.3936667 23.8959389,17.3936667 C25.6974656,17.3936667 26.8732417,16.0611667 26.8732417,14.1911667 C26.8732417,12.8078333 26.2727328,11.9365833 24.2961425,11.2449167 C19.7168041,9.65616667 18.7156845,8.11908333 18.7156845,5.42908333 C18.7156845,2.53408333 21.0432163,0.253666667 23.8959389,0.253666667 C26.9485598,0.253666667 29.1506972,2.22658333 29.2007735,5.53158333 L26.4982799,5.53158333 Z" id="Fill-2" fill="#E6E6E6"></path>
                    <path d="M39.4759491,5.53158333 C39.4759491,3.81491667 38.3995115,2.78991667 36.873201,2.78991667 C35.5720305,2.78991667 34.3958473,3.9945 34.3958473,5.37783333 C34.3958473,6.70991667 35.2719796,7.47866667 37.0735064,8.06783333 C41.0775776,9.3745 42.5538117,10.912 42.5538117,14.1911667 C42.5538117,17.6240833 40.151369,19.9303333 36.873201,19.9303333 C33.5701985,19.9303333 31.2178321,17.5215833 31.1677557,13.9603333 L33.8702494,13.9603333 C33.8954911,16.0099167 35.0716743,17.3936667 36.873201,17.3936667 C38.6751349,17.3936667 39.8509109,16.0611667 39.8509109,14.1911667 C39.8509109,12.8078333 39.250402,11.9365833 37.2738117,11.2449167 C32.6944733,9.65616667 31.6933537,8.11908333 31.6933537,5.42908333 C31.6933537,2.53408333 34.0204784,0.253666667 36.873201,0.253666667 C39.926229,0.253666667 42.1283664,2.22658333 42.1784427,5.53158333 L39.4759491,5.53158333 Z" id="Fill-4" fill="#E6E6E6"></path>
                    <mask id="mask-2" fill="white">
                        <use xlink:href="#path-1"></use>
                    </mask>
                    <g id="Clip-7"></g>
                    <polygon id="Fill-6" fill="#E6E6E6" mask="url(#mask-2)" points="44.9034097 19.57125 47.6059033 19.57125 47.6059033 0.6125 44.9034097 0.6125"></polygon>
                    <polygon id="Fill-8" fill="#E6E6E6" mask="url(#mask-2)" points="62.774514 19.5713333 53.61543 4.91675 53.5657608 4.91675 53.5657608 19.5713333 50.8632672 19.5713333 50.8632672 0.612583333 53.8161425 0.612583333 62.8245903 15.03675 62.8746667 15.03675 62.8746667 0.612583333 65.5771603 0.612583333 65.5771603 19.5713333"></polygon>
                    <polygon id="Fill-9" fill="#E6E6E6" mask="url(#mask-2)" points="68.6694758 19.5713333 68.6694758 0.612583333 78.6542087 0.612583333 78.6542087 3.14883333 71.3723766 3.14883333 71.3723766 8.73383333 78.6542087 8.73383333 78.6542087 11.2705 71.3723766 11.2705 71.3723766 17.0346667 78.6542087 17.0346667 78.6542087 19.5713333"></polygon>
                    <path d="M149.822046,15.106375 C147.054412,15.106375 144.796906,12.812625 144.796906,10.000125 C144.796906,7.187625 147.054412,4.89345833 149.822046,4.89345833 C152.589679,4.89345833 154.846779,7.187625 154.846779,10.000125 C154.846779,12.812625 152.589679,15.106375 149.822046,15.106375 M149.822046,0.000125 C144.401995,0.000125 139.981435,4.49220833 139.981435,10.000125 C139.981435,15.5080417 144.401995,20.000125 149.822046,20.000125 C155.242097,20.000125 159.662656,15.5080417 159.662656,10.000125 C159.662656,4.49220833 155.242097,0.000125 149.822046,0.000125" id="Fill-10" fill="#E6E6E6" mask="url(#mask-2)"></path>
                    <path d="M115.331542,15.106375 C112.563908,15.106375 110.306402,12.812625 110.306402,10.000125 C110.306402,7.187625 112.563908,4.89345833 115.331542,4.89345833 C118.099176,4.89345833 120.356275,7.187625 120.356275,10.000125 C120.356275,12.812625 118.099176,15.106375 115.331542,15.106375 M115.331542,0.000125 C109.911491,0.000125 105.490931,4.49220833 105.490931,10.000125 C105.490931,15.5080417 109.911491,20.000125 115.331542,20.000125 C120.751593,20.000125 125.171746,15.5080417 125.171746,10.000125 C125.171746,4.49220833 120.751593,0.000125 115.331542,0.000125" id="Fill-11" fill="#E6E6E6" mask="url(#mask-2)"></path>
                    <path d="M108.011644,0.492333333 L102.467013,0.492333333 L97.2032977,8.749 L89.9141374,8.749 L89.9141374,13.0210833 L95.1155623,13.0210833 C94.1620763,14.2444167 92.7884377,15.0423333 91.0618219,15.0423333 C88.0910331,15.0423333 86.0102188,12.81275 86.0102188,10.00025 C86.0102188,7.18733333 88.1842646,4.89358333 91.1550534,4.89358333 C93.2289466,4.89358333 95.3541374,6.13566667 96.3108804,7.75608333 L98.7369364,3.95066667 C96.936631,1.55233333 94.0965293,-0.000166666667 90.9107786,-0.000166666667 C85.4911349,-0.000166666667 81.0701679,4.49233333 81.0701679,10.00025 C81.0701679,15.5081667 85.5921018,19.58775 90.8126616,19.58775 L106.205232,19.58775 L106.205232,15.029 L99.4099135,15.029 C99.5332723,14.81525 99.6488957,14.5956667 99.7567837,14.3719167 L108.011644,0.492333333 Z" id="Fill-12" fill="#E6E6E6" mask="url(#mask-2)"></path>
                    <path d="M133.585954,15.4022083 L130.69944,15.4022083 L130.69944,11.8022083 L133.585954,11.8022083 C134.553282,11.8022083 135.344733,12.6122083 135.344733,13.6022083 C135.344733,14.5922083 134.553282,15.4022083 133.585954,15.4022083 M134.834198,6.46804167 C134.834198,7.348875 134.129873,8.070125 133.268804,8.070125 L130.69944,8.070125 L130.69944,4.86554167 L133.268804,4.86554167 C134.129873,4.86554167 134.834198,5.586375 134.834198,6.46804167 M137.456489,9.58970833 C138.824835,8.736375 139.743715,7.19429167 139.743715,5.44345833 C139.743715,2.775125 137.610789,0.592625 135.003562,0.592625 L125.735776,0.592625 L125.735776,19.587625 L134.853333,19.587625 C137.731705,19.587625 140.086921,17.1772083 140.086921,14.231375 C140.086921,12.2534583 139.02514,10.5172083 137.456489,9.58970833" id="Fill-13" fill="#E6E6E6" mask="url(#mask-2)"></path>
                </g>
            </g>
        </g>
    </g>
</svg>